<svg width="1080" height="1080" viewBox="0 0 1080 1080" fill="none" xmlns="http://www.w3.org/2000/svg">
<rect width="1080" height="1080" fill="white"/>
<circle cx="592.315" cy="953.471" r="62.069" fill="#B0B3C3"/>
<circle cx="899.113" cy="953.471" r="62.069" fill="#B0B3C3"/>
<circle cx="592.315" cy="953.472" r="41.835" stroke="#090854" stroke-width="5"/>
<circle cx="899.113" cy="953.472" r="41.835" stroke="#090854" stroke-width="5"/>
<circle cx="1020.8" cy="118.202" r="53.202" fill="#B0B3C3"/>
<path d="M38 98C38 92.4772 42.4772 88 48 88H516.325C527.371 88 536.325 96.9543 536.325 108V138C536.325 143.523 531.848 148 526.325 148H48C42.4772 148 38 143.523 38 138V98Z" fill="#090854"/>
<path d="M945.222 118.203L495.764 118.203C473.672 118.203 455.764 136.112 455.764 158.203L455.764 787.563C455.764 809.654 473.672 827.563 495.764 827.563H1025.93" stroke="#090854" stroke-width="60"/>
<rect x="244.729" y="284.902" width="177.34" height="53.202" rx="10" fill="#090854"/>
<rect x="244.729" y="703.422" width="177.34" height="53.202" rx="10" fill="#090854"/>
<rect x="154.286" y="389.531" width="267.783" height="53.202" rx="10" fill="#090854"/>
<rect x="70.936" y="497.711" width="379.507" height="53.202" rx="10" fill="#090854"/>
<rect x="117.044" y="598.793" width="305.025" height="53.202" rx="10" fill="#090854"/>
<rect x="173.793" y="284.902" width="53.202" height="53.202" rx="8" fill="#B0B3C3"/>
<rect x="173.793" y="703.422" width="53.202" height="53.202" rx="8" fill="#B0B3C3"/>
<rect x="83.3499" y="389.531" width="53.202" height="53.202" rx="8" fill="#B0B3C3"/>
<rect y="497.711" width="53.202" height="53.202" rx="8" fill="#B0B3C3"/>
<rect x="46.1084" y="598.793" width="53.202" height="53.202" rx="8" fill="#B0B3C3"/>
<rect width="230.568" height="230.568" transform="matrix(0.0149548 0.999888 -0.999888 -0.0149548 814.04 270.66)" fill="#090854"/>
<path d="M647.85 268.175L671.334 293.086M647.85 268.175L583.498 267.212L584.138 310.045M647.85 268.175L696.582 268.903M671.334 293.086L620.903 345.861M671.334 293.086L696.582 268.903M620.903 345.861L672.926 399.539M620.903 345.861L584.138 310.045M672.926 399.539L622.552 456.093M672.926 399.539L727.181 351.859M622.552 456.093L667.542 498.959M622.552 456.093L585.806 421.537M667.542 498.959L586.946 497.754L585.806 421.537M667.542 498.959L693.158 499.343L767.506 500.455M584.138 310.045L585.806 421.537M696.582 268.903L755.311 269.782M755.311 269.782L814.04 270.66L814.954 331.76M755.311 269.782L780.691 296.156M814.954 331.76L780.691 296.156M814.954 331.76L816.602 441.992M780.691 296.156L727.181 351.859M727.181 351.859L782.356 407.473M816.602 441.992L817.488 501.202L767.506 500.455M816.602 441.992L782.356 407.473M782.356 407.473L728.793 459.67M688.159 499.268L728.793 459.67M728.793 459.67L767.506 500.455" stroke="#B0B3C3" stroke-width="6"/>
<path d="M697.515 272.452L752.445 271.204L776.308 295.068L727.724 346.629L673.057 394.76L626.07 345.985L674.637 295.33L697.515 272.452Z" fill="#090854"/>
<path d="M726.82 357.02L777.079 407.279L686.403 496.176L668.43 495.469L627.537 456.303L673.202 404.411L726.82 357.02Z" fill="#090854"/>
<path d="M817.009 501.654L813.993 270.719L583.947 268.593L588.677 496.925L817.009 501.654Z" stroke="#B0B3C3" stroke-width="2"/>
<path d="M818.069 265.887L831.902 282.793V516.409H591.37L582.148 501.808L821.143 503.345L818.069 265.887Z" fill="#B0B3C3"/>
<line x1="822.411" y1="275.09" x2="822.411" y2="507.169" stroke="#B0B3C3"/>
<line x1="827.022" y1="279.703" x2="827.022" y2="510.245" stroke="#B0B3C3"/>
<line x1="586.759" y1="506.648" x2="823.448" y2="506.648" stroke="#B0B3C3"/>
<line x1="586.759" y1="511.254" x2="828.059" y2="511.254" stroke="#B0B3C3"/>
<rect x="535.566" y="529.633" width="212.808" height="212.808" fill="white"/>
<rect x="535.566" y="529.633" width="106.404" height="106.404" fill="#B0B3C3"/>
<rect x="641.97" y="636.035" width="106.404" height="106.404" fill="#B0B3C3"/>
<rect x="641.97" y="529.633" width="106.404" height="106.404" fill="#090854"/>
<rect x="535.566" y="636.035" width="106.404" height="106.404" fill="#090854"/>
<path d="M748.374 529.633L766.995 547.367V755.741H552.414L535.566 742.441H748.374V529.633Z" fill="#7F8290"/>
<line x1="752.421" y1="536.727" x2="752.421" y2="747.761" stroke="black"/>
<line x1="759.515" y1="543.82" x2="759.515" y2="753.081" stroke="black"/>
<line x1="539.113" y1="747.258" x2="751.921" y2="747.258" stroke="black"/>
<line x1="546.207" y1="752.578" x2="759.015" y2="752.578" stroke="black"/>
<rect x="796.983" y="532.137" width="207.808" height="207.808" fill="#090854" stroke="#B0B3C3" stroke-width="5"/>
<path d="M1007.29 529.637L1025.91 547.371V755.745H811.33L794.483 742.445H1007.29V529.637Z" fill="#B0B3C3"/>
<line x1="1011.34" y1="536.73" x2="1011.34" y2="747.765" stroke="black"/>
<line x1="1018.43" y1="543.824" x2="1018.43" y2="753.085" stroke="black"/>
<line x1="798.03" y1="747.262" x2="1010.84" y2="747.262" stroke="black"/>
<line x1="805.123" y1="752.582" x2="1017.93" y2="752.582" stroke="black"/>
<path d="M798.03 706.966C840.887 693.666 941.143 682.139 999.31 742.434M798.03 558.892C840.887 545.592 946.463 534.062 1004.63 594.358M834.384 742.434C844.729 690.712 893.97 593.12 1008.18 616.528M796.256 594.358C844.433 579.282 931.212 587.79 907.094 742.434" stroke="#B0B3C3" stroke-width="2"/>
<path d="M1001.97 660.864C955.271 630.126 861.163 561.909 858.325 534.953" stroke="#B0B3C3" stroke-width="2"/>
<path d="M796.256 661.751C837.931 669.14 938.305 682.5 1006.4 676.825M796.256 623.623C867.783 598.795 1009.95 545.771 1006.4 532.293" stroke="#B0B3C3" stroke-width="2"/>
</svg>
